<svg width="20" height="20" viewBox="0 0 20 20" fill="none" xmlns="http://www.w3.org/2000/svg">
<path d="M2.1588 4.79961L2.1588 4.7996C2.8943 3.80385 4.22196 3.5 6.30379 3.5H13.6961C15.7298 3.5 17.03 3.78439 17.7688 4.72028L2.1588 4.79961ZM2.1588 4.79961C1.80646 5.27662 1.64924 5.84244 1.57389 6.45313M2.1588 4.79961L1.57389 6.45313M1.57389 6.45313C1.49998 7.05206 1.49999 7.74473 1.5 8.50005M1.57389 6.45313L1.5 8.50005M1.5 8.50005L1.5 8.52402M1.5 8.50005L1.5 8.52402M1.5 8.52402V11.476M1.5 8.52402V11.476M1.5 11.476C1.5 12.978 1.65726 14.2752 2.40127 15.1807M1.5 11.476L2.40127 15.1807M2.40127 15.1807C3.16712 16.1126 4.4367 16.5 6.30379 16.5M2.40127 15.1807L6.30379 16.5M6.30379 16.5H13.6961M6.30379 16.5H13.6961M13.6961 16.5C15.4837 16.5 16.6466 16.2408 17.4308 15.441M13.6961 16.5L17.4308 15.441M17.4308 15.441C18.2289 14.627 18.5 13.3638 18.5 11.476M17.4308 15.441L18.5 11.476M18.5 11.476V8.52402M18.5 11.476V8.52402M18.5 8.52402C18.5 7.71137 18.4899 6.98692 18.4006 6.3687M18.5 8.52402L18.4006 6.3687M18.4006 6.3687C18.3107 5.74598 18.1347 5.18377 17.7688 4.72032L18.4006 6.3687ZM12.0288 9.97072L12.0288 9.97076L8.67691 11.8376C8.67462 11.8354 8.67157 11.8318 8.66854 11.8261C8.66368 11.8169 8.66005 11.8044 8.66005 11.7897V8.06243C8.66005 8.04785 8.66366 8.03538 8.66851 8.02619C8.67157 8.0204 8.67464 8.01674 8.67692 8.01454L12.0288 9.8694L12.0288 9.86941C12.0297 9.86991 12.0345 9.87293 12.0397 9.88208C12.045 9.8913 12.0491 9.90432 12.0492 9.91994C12.0492 9.93567 12.045 9.94876 12.0398 9.95799C12.0346 9.96718 12.0297 9.97022 12.0288 9.97072ZM8.67996 11.8403C8.68075 11.8405 8.68077 11.8407 8.68002 11.8402L8.67996 11.8403Z" stroke="black"/>
</svg>
