<svg width="20" height="20" viewBox="0 0 20 20" fill="none" xmlns="http://www.w3.org/2000/svg">
<path d="M13.6611 2.00333L11.5024 2C9.07718 2 7.5099 3.54552 7.5099 5.93762V7.75313H5.33943C5.15188 7.75313 5 7.89927 5 8.07954V10.71C5 10.8903 5.15205 11.0363 5.33943 11.0363H7.5099V17.6738C7.5099 17.854 7.66178 18 7.84933 18H10.6812C10.8687 18 11.0206 17.8539 11.0206 17.6738V11.0363H13.5584C13.7459 11.0363 13.8978 10.8903 13.8978 10.71L13.8989 8.07954C13.8989 7.99299 13.863 7.91009 13.7995 7.84884C13.7359 7.78758 13.6493 7.75313 13.5593 7.75313H11.0206V6.2141C11.0206 5.47438 11.204 5.09886 12.2065 5.09886L13.6607 5.09836C13.8481 5.09836 14 4.95222 14 4.77211V2.32958C14 2.14964 13.8483 2.00366 13.6611 2.00333Z" stroke="black"/>
</svg>
