<svg width="45" height="14" viewBox="0 0 45 14" fill="none" xmlns="http://www.w3.org/2000/svg">
<g clip-path="url(#clip0)">
<path fill-rule="evenodd" clip-rule="evenodd" d="M8.37906 3C6.40958 3 4.96765 4.46533 4.96765 6.5C4.96765 7.29333 5.18746 7.99333 5.57432 8.56267H0.677007C0.298938 8.56267 0 8.88933 0 9.28133V10H8.37906H8.38785C10.3573 10 11.7905 8.53467 11.7905 6.5C11.7817 4.46533 10.3573 3 8.37906 3ZM8.37027 8.77733C7.1921 8.77733 6.33045 7.83467 6.33045 6.5C6.33045 5.184 7.18331 4.22267 8.37027 4.22267C9.56602 4.22267 10.4189 5.184 10.4189 6.5C10.4189 7.83467 9.56602 8.77733 8.37027 8.77733ZM19.8621 6.5C19.8621 8.53467 18.4378 10 16.4595 10C14.49 10 13.048 8.53467 13.048 6.5C13.048 4.46533 14.49 3 16.4595 3C18.429 3 19.8621 4.46533 19.8621 6.5ZM14.4109 6.5C14.4109 7.83467 15.2637 8.77733 16.4507 8.77733C17.6464 8.77733 18.4993 7.83467 18.4993 6.5C18.4993 5.184 17.6464 4.22267 16.4507 4.22267C15.2637 4.22267 14.4109 5.184 14.4109 6.5ZM27.0634 5.97733V9.28133H27.037V10H26.36C25.9908 10 25.683 9.68267 25.683 9.28133V5.97733C25.683 4.89467 25.05 4.18533 24.074 4.18533C23.0981 4.18533 22.465 4.904 22.465 5.97733V10H21.788C21.4187 10 21.111 9.68267 21.111 9.28133V5.97733C21.111 4.204 22.3155 3 24.074 3C25.8501 3 27.0634 4.204 27.0634 5.97733ZM34.264 3.57867V3H33.5958C33.2177 3 32.9188 3.32667 32.9188 3.71867V7.032C32.9188 8.10533 32.2682 8.80533 31.2922 8.80533C30.3163 8.80533 29.6832 8.10533 29.6832 7.032V6.21067V3.85867V3.57867V3H29.015C28.6369 3 28.338 3.31733 28.338 3.71867V7.04133C28.338 8.80533 29.5425 10 31.3098 10C33.0683 10 34.2728 8.796 34.2728 7.04133V5.352V3.85867L34.264 3.57867ZM40.2695 4.29733C40.6652 3.48533 41.4741 3 42.5028 3C44.0151 3 45.0086 4.07333 44.9998 5.70667V10H44.3228C43.9535 10 43.6458 9.68267 43.6458 9.28133V5.66933C43.6458 4.764 43.1183 4.148 42.3006 4.148C41.4829 4.148 40.9378 4.764 40.9378 5.66933V8.11467V9.14133V9.42133V9.89733V10H40.2695C39.9003 10 39.5925 9.68267 39.5925 9.28133V5.66933C39.5925 4.764 39.0474 4.148 38.2297 4.148C37.412 4.148 36.8845 4.764 36.8845 5.66933V9.272V9.99067H36.2075C35.8382 9.99067 35.5305 9.67333 35.5305 9.272V5.70667C35.5305 4.07333 36.5152 3 38.0363 3C39.065 3 39.8739 3.48533 40.2695 4.29733Z" fill="black"/>
</g>
<defs>
<clipPath id="clip0">
<rect width="45" height="14" fill="white"/>
</clipPath>
</defs>
</svg>
