<svg width="120" height="16" viewBox="0 0 120 16" fill="none" xmlns="http://www.w3.org/2000/svg">
<g clip-path="url(#clip0)">
<path d="M16.0841 0.994374C14.4889 1.20837 14.0984 1.42236 13.2247 3.55569C12.5827 5.11948 9.29303 13.0602 8.12478 16.0001H7.34044C5.9339 12.1845 3.88534 6.63717 2.52514 3.1277C1.86324 1.37297 1.45286 1.13594 0 0.994374V0.335938H6.05305V0.994374C4.28909 1.18532 4.19312 1.46844 4.52737 2.34746C5.12308 4.07585 6.86387 8.79355 8.36307 12.731C9.62729 9.67256 11.1993 5.81742 12.3344 2.82153C12.8573 1.4454 12.5727 1.23141 10.6168 0.994374V0.335938H16.0973L16.0841 0.994374Z" fill="black"/>
<path d="M26.2271 15.74V15.0816C28.1796 14.8709 28.3716 14.7754 28.3716 12.7771V3.3417C28.3716 1.30384 28.1796 1.20837 26.2271 0.994374V0.335938H32.6144V0.994374C30.6287 1.20837 30.4433 1.30384 30.4433 3.3417V12.754C30.4433 14.7919 30.6353 14.8643 32.6144 15.0586V15.717L26.2271 15.74Z" fill="black"/>
<path d="M56.8761 15.9309C56.5683 15.9309 56.3036 15.9045 55.9958 15.8815C54.255 15.763 53.325 15.3119 52.2759 13.8436C51.3956 12.6354 50.5384 11.1407 49.774 9.93252C49.2974 9.17203 48.9896 9.03046 47.7883 9.03046H46.951V12.7539C46.951 14.7687 47.2157 14.8873 49.122 15.0584V15.7169H42.7446V15.0584C44.7303 14.8477 44.8892 14.7523 44.8892 12.7539V3.29548C44.8892 1.28067 44.6277 1.20824 42.7446 0.990956V0.33252H48.8208C50.5616 0.33252 51.7299 0.546515 52.6333 1.13911C53.1544 1.47522 53.5781 1.94092 53.8626 2.49008C54.147 3.03924 54.2823 3.65279 54.255 4.26996C54.255 6.30782 52.9312 7.58848 51.1805 8.34569C51.6107 9.08313 52.6333 10.67 53.3515 11.7366C53.9195 12.5939 54.5477 13.4102 55.2313 14.1794C55.6856 14.7115 56.2933 15.0919 56.9721 15.2691L56.8761 15.9309ZM48.0828 8.214C49.3239 8.214 50.1082 8.02635 50.7039 7.52923C51.6339 6.84117 52.0277 5.88314 52.0277 4.61235C52.0277 2.07408 50.3366 1.15227 48.5031 1.15227C47.8114 1.15227 47.4044 1.24445 47.2389 1.38931C47.0238 1.55392 46.951 1.79095 46.951 2.40659V8.214H48.0828Z" fill="black"/>
<path d="M84.0201 0.994374C82.4978 1.16227 81.9947 1.3993 81.9252 2.48902C81.8988 3.24622 81.8524 4.24375 81.8524 6.43963V15.9475H80.9456L70.7491 3.55569V9.48162C70.7491 11.6149 70.8186 12.6816 70.8682 13.3697C70.9146 14.5779 71.5103 14.9335 73.2246 15.075V15.7335H67.4363V15.075C68.9123 14.9565 69.4849 14.601 69.5809 13.4289C69.6503 12.6684 69.7 11.6018 69.7 9.4454V3.41413C69.7 2.75569 69.6504 2.3705 69.2234 1.84705C68.77 1.25445 68.2703 1.11289 67.1021 0.994374V0.335938H70.6763L80.7801 12.2602V6.44623C80.7801 4.24376 80.7338 3.22318 80.661 2.51206C80.5882 1.4454 80.0421 1.11289 78.1359 0.994374V0.335938H84.0201V0.994374Z" fill="black"/>
<path d="M103.993 15.7399V15.0815C105.542 14.8939 105.73 14.6568 105.399 13.7646C105.068 12.8725 104.612 11.6544 104.112 10.163H98.9624C98.5818 11.2297 98.2244 12.1383 97.8901 13.126C97.3672 14.6667 97.7015 14.8544 99.6541 15.1013V15.7597H94.1504V15.1013C95.6529 14.9136 96.0335 14.7457 96.8675 12.6124L101.799 0.167929L102.563 0.0263672C104.062 4.07904 105.707 8.5597 107.196 12.6618C107.958 14.7227 108.173 14.9136 109.864 15.1013V15.7597L103.993 15.7399ZM101.61 3.10456C100.845 5.14242 100.035 7.2988 99.3198 9.17205H103.778L101.61 3.10456Z" fill="black"/>
</g>
<defs>
<clipPath id="clip0">
<rect width="120" height="16" fill="white"/>
</clipPath>
</defs>
</svg>
